<mxfile host="app.diagrams.net" modified="2022-07-04T15:36:20.136Z" agent="5.0 (Windows NT 10.0; Win64; x64) AppleWebKit/537.36 (KHTML, like Gecko) Chrome/103.0.5060.66 Safari/537.36" etag="jHim235LxLE51SQqSiZR" version="20.0.4" type="github">
  <diagram id="-E4rqIcrRXrwPLXp2Tc1" name="Page-1">
    <mxGraphModel dx="2249" dy="776" grid="1" gridSize="10" guides="1" tooltips="1" connect="1" arrows="1" fold="1" page="1" pageScale="1" pageWidth="827" pageHeight="1169" math="0" shadow="0">
      <root>
        <mxCell id="0" />
        <mxCell id="1" parent="0" />
        <mxCell id="mvRj6zF5OCdQS_Vy_unl-1" value="User" style="swimlane;fontStyle=0;childLayout=stackLayout;horizontal=1;startSize=30;horizontalStack=0;resizeParent=1;resizeParentMax=0;resizeLast=0;collapsible=1;marginBottom=0;" parent="1" vertex="1">
          <mxGeometry x="60" y="80" width="140" height="120" as="geometry" />
        </mxCell>
        <mxCell id="mvRj6zF5OCdQS_Vy_unl-2" value="identity" style="text;strokeColor=none;fillColor=none;align=left;verticalAlign=middle;spacingLeft=4;spacingRight=4;overflow=hidden;points=[[0,0.5],[1,0.5]];portConstraint=eastwest;rotatable=0;" parent="mvRj6zF5OCdQS_Vy_unl-1" vertex="1">
          <mxGeometry y="30" width="140" height="30" as="geometry" />
        </mxCell>
        <mxCell id="mvRj6zF5OCdQS_Vy_unl-3" value="rate" style="text;strokeColor=none;fillColor=none;align=left;verticalAlign=middle;spacingLeft=4;spacingRight=4;overflow=hidden;points=[[0,0.5],[1,0.5]];portConstraint=eastwest;rotatable=0;" parent="mvRj6zF5OCdQS_Vy_unl-1" vertex="1">
          <mxGeometry y="60" width="140" height="30" as="geometry" />
        </mxCell>
        <mxCell id="mvRj6zF5OCdQS_Vy_unl-4" value="Item 3" style="text;strokeColor=none;fillColor=none;align=left;verticalAlign=middle;spacingLeft=4;spacingRight=4;overflow=hidden;points=[[0,0.5],[1,0.5]];portConstraint=eastwest;rotatable=0;" parent="mvRj6zF5OCdQS_Vy_unl-1" vertex="1">
          <mxGeometry y="90" width="140" height="30" as="geometry" />
        </mxCell>
        <mxCell id="mvRj6zF5OCdQS_Vy_unl-5" value="Project" style="swimlane;fontStyle=0;childLayout=stackLayout;horizontal=1;startSize=30;horizontalStack=0;resizeParent=1;resizeParentMax=0;resizeLast=0;collapsible=1;marginBottom=0;" parent="1" vertex="1">
          <mxGeometry x="240" y="80" width="140" height="210" as="geometry" />
        </mxCell>
        <mxCell id="mvRj6zF5OCdQS_Vy_unl-6" value="id" style="text;strokeColor=none;fillColor=none;align=left;verticalAlign=middle;spacingLeft=4;spacingRight=4;overflow=hidden;points=[[0,0.5],[1,0.5]];portConstraint=eastwest;rotatable=0;" parent="mvRj6zF5OCdQS_Vy_unl-5" vertex="1">
          <mxGeometry y="30" width="140" height="30" as="geometry" />
        </mxCell>
        <mxCell id="mvRj6zF5OCdQS_Vy_unl-7" value="owner" style="text;strokeColor=none;fillColor=none;align=left;verticalAlign=middle;spacingLeft=4;spacingRight=4;overflow=hidden;points=[[0,0.5],[1,0.5]];portConstraint=eastwest;rotatable=0;" parent="mvRj6zF5OCdQS_Vy_unl-5" vertex="1">
          <mxGeometry y="60" width="140" height="30" as="geometry" />
        </mxCell>
        <mxCell id="mvRj6zF5OCdQS_Vy_unl-8" value="desc" style="text;strokeColor=none;fillColor=none;align=left;verticalAlign=middle;spacingLeft=4;spacingRight=4;overflow=hidden;points=[[0,0.5],[1,0.5]];portConstraint=eastwest;rotatable=0;" parent="mvRj6zF5OCdQS_Vy_unl-5" vertex="1">
          <mxGeometry y="90" width="140" height="30" as="geometry" />
        </mxCell>
        <mxCell id="mvRj6zF5OCdQS_Vy_unl-11" value="lang" style="text;strokeColor=none;fillColor=none;align=left;verticalAlign=middle;spacingLeft=4;spacingRight=4;overflow=hidden;points=[[0,0.5],[1,0.5]];portConstraint=eastwest;rotatable=0;" parent="mvRj6zF5OCdQS_Vy_unl-5" vertex="1">
          <mxGeometry y="120" width="140" height="30" as="geometry" />
        </mxCell>
        <mxCell id="mvRj6zF5OCdQS_Vy_unl-9" value="price" style="text;strokeColor=none;fillColor=none;align=left;verticalAlign=middle;spacingLeft=4;spacingRight=4;overflow=hidden;points=[[0,0.5],[1,0.5]];portConstraint=eastwest;rotatable=0;" parent="mvRj6zF5OCdQS_Vy_unl-5" vertex="1">
          <mxGeometry y="150" width="140" height="30" as="geometry" />
        </mxCell>
        <mxCell id="mvRj6zF5OCdQS_Vy_unl-10" value="deadline" style="text;strokeColor=none;fillColor=none;align=left;verticalAlign=middle;spacingLeft=4;spacingRight=4;overflow=hidden;points=[[0,0.5],[1,0.5]];portConstraint=eastwest;rotatable=0;" parent="mvRj6zF5OCdQS_Vy_unl-5" vertex="1">
          <mxGeometry y="180" width="140" height="30" as="geometry" />
        </mxCell>
        <mxCell id="-_ocpUVoCZEyNk-bwwx2-8" value="" style="edgeStyle=orthogonalEdgeStyle;rounded=0;orthogonalLoop=1;jettySize=auto;html=1;" edge="1" parent="1" source="-_ocpUVoCZEyNk-bwwx2-2" target="-_ocpUVoCZEyNk-bwwx2-7">
          <mxGeometry relative="1" as="geometry" />
        </mxCell>
        <mxCell id="-_ocpUVoCZEyNk-bwwx2-10" value="" style="edgeStyle=orthogonalEdgeStyle;rounded=0;orthogonalLoop=1;jettySize=auto;html=1;" edge="1" parent="1" source="-_ocpUVoCZEyNk-bwwx2-2" target="-_ocpUVoCZEyNk-bwwx2-9">
          <mxGeometry relative="1" as="geometry" />
        </mxCell>
        <mxCell id="-_ocpUVoCZEyNk-bwwx2-2" value="ICP SUPPLY" style="shape=cylinder3;whiteSpace=wrap;html=1;boundedLbl=1;backgroundOutline=1;size=15;" vertex="1" parent="1">
          <mxGeometry x="150" y="360" width="90" height="80" as="geometry" />
        </mxCell>
        <mxCell id="-_ocpUVoCZEyNk-bwwx2-12" value="" style="edgeStyle=orthogonalEdgeStyle;rounded=0;orthogonalLoop=1;jettySize=auto;html=1;" edge="1" parent="1" source="-_ocpUVoCZEyNk-bwwx2-3" target="-_ocpUVoCZEyNk-bwwx2-11">
          <mxGeometry relative="1" as="geometry" />
        </mxCell>
        <mxCell id="-_ocpUVoCZEyNk-bwwx2-3" value="REQUESTER" style="shape=umlActor;verticalLabelPosition=bottom;verticalAlign=top;html=1;outlineConnect=0;" vertex="1" parent="1">
          <mxGeometry x="100" y="600" width="30" height="60" as="geometry" />
        </mxCell>
        <mxCell id="-_ocpUVoCZEyNk-bwwx2-7" value="CUSTOM TOKEN SUPPLY" style="shape=cylinder3;whiteSpace=wrap;html=1;boundedLbl=1;backgroundOutline=1;size=15;" vertex="1" parent="1">
          <mxGeometry x="-10" y="360" width="90" height="80" as="geometry" />
        </mxCell>
        <mxCell id="-_ocpUVoCZEyNk-bwwx2-9" value="ICP FEES SUPPLY" style="shape=cylinder3;whiteSpace=wrap;html=1;boundedLbl=1;backgroundOutline=1;size=15;" vertex="1" parent="1">
          <mxGeometry x="320" y="360" width="90" height="80" as="geometry" />
        </mxCell>
        <mxCell id="-_ocpUVoCZEyNk-bwwx2-14" value="" style="edgeStyle=orthogonalEdgeStyle;rounded=0;orthogonalLoop=1;jettySize=auto;html=1;" edge="1" parent="1" source="-_ocpUVoCZEyNk-bwwx2-11" target="-_ocpUVoCZEyNk-bwwx2-13">
          <mxGeometry relative="1" as="geometry" />
        </mxCell>
        <mxCell id="-_ocpUVoCZEyNk-bwwx2-11" value="NEED TO POST AN ISSUE" style="whiteSpace=wrap;html=1;verticalAlign=middle;" vertex="1" parent="1">
          <mxGeometry x="165" y="600" width="120" height="60" as="geometry" />
        </mxCell>
        <mxCell id="-_ocpUVoCZEyNk-bwwx2-16" value="" style="edgeStyle=orthogonalEdgeStyle;rounded=0;orthogonalLoop=1;jettySize=auto;html=1;" edge="1" parent="1" source="-_ocpUVoCZEyNk-bwwx2-13" target="-_ocpUVoCZEyNk-bwwx2-15">
          <mxGeometry relative="1" as="geometry" />
        </mxCell>
        <mxCell id="-_ocpUVoCZEyNk-bwwx2-13" value="CUSTOM TOKENS AVAILABLE" style="whiteSpace=wrap;html=1;verticalAlign=middle;" vertex="1" parent="1">
          <mxGeometry x="365" y="600" width="120" height="60" as="geometry" />
        </mxCell>
        <mxCell id="-_ocpUVoCZEyNk-bwwx2-18" value="" style="edgeStyle=orthogonalEdgeStyle;rounded=0;orthogonalLoop=1;jettySize=auto;html=1;" edge="1" parent="1" source="-_ocpUVoCZEyNk-bwwx2-15" target="-_ocpUVoCZEyNk-bwwx2-17">
          <mxGeometry relative="1" as="geometry" />
        </mxCell>
        <mxCell id="-_ocpUVoCZEyNk-bwwx2-15" value="ICP TOKENS NEEDED TO GET CUSTOM TOKENS" style="whiteSpace=wrap;html=1;verticalAlign=middle;" vertex="1" parent="1">
          <mxGeometry x="565" y="600" width="120" height="60" as="geometry" />
        </mxCell>
        <mxCell id="-_ocpUVoCZEyNk-bwwx2-20" value="" style="edgeStyle=orthogonalEdgeStyle;rounded=0;orthogonalLoop=1;jettySize=auto;html=1;" edge="1" parent="1" source="-_ocpUVoCZEyNk-bwwx2-17" target="-_ocpUVoCZEyNk-bwwx2-19">
          <mxGeometry relative="1" as="geometry" />
        </mxCell>
        <mxCell id="-_ocpUVoCZEyNk-bwwx2-17" value="REQUESTER" style="shape=umlActor;verticalLabelPosition=bottom;verticalAlign=top;html=1;outlineConnect=0;" vertex="1" parent="1">
          <mxGeometry x="610" y="740" width="30" height="60" as="geometry" />
        </mxCell>
        <mxCell id="-_ocpUVoCZEyNk-bwwx2-22" value="" style="edgeStyle=orthogonalEdgeStyle;rounded=0;orthogonalLoop=1;jettySize=auto;html=1;" edge="1" parent="1" source="-_ocpUVoCZEyNk-bwwx2-19" target="-_ocpUVoCZEyNk-bwwx2-21">
          <mxGeometry relative="1" as="geometry" />
        </mxCell>
        <mxCell id="-_ocpUVoCZEyNk-bwwx2-19" value="BUY" style="whiteSpace=wrap;html=1;verticalAlign=middle;" vertex="1" parent="1">
          <mxGeometry x="455" y="740" width="120" height="60" as="geometry" />
        </mxCell>
        <mxCell id="-_ocpUVoCZEyNk-bwwx2-21" value="BUY ICP TOKENS IN AN EXCHANGE" style="whiteSpace=wrap;html=1;verticalAlign=middle;" vertex="1" parent="1">
          <mxGeometry x="255" y="740" width="120" height="60" as="geometry" />
        </mxCell>
      </root>
    </mxGraphModel>
  </diagram>
</mxfile>
